<svg width="117" height="86" viewBox="0 0 117 86" fill="none" xmlns="http://www.w3.org/2000/svg">
<path d="M73.9325 85.999C82.4465 86.0098 90.7723 83.4943 97.8552 78.7712C104.938 74.048 110.46 67.3296 113.72 59.4669C116.981 51.6043 117.834 42.9511 116.172 34.6033C114.509 26.2555 110.406 18.5887 104.382 12.574C98.3579 6.55919 90.6837 2.46714 82.3314 0.815939C73.9791 -0.835258 65.3246 0.0286973 57.4638 3.2985C49.6031 6.5683 42.89 12.0967 38.1745 19.1837C33.4591 26.2706 30.9536 34.5972 30.9754 43.1088C30.3711 67.7116 17.5718 74.7409 0.37793 84.9006V85.8892L73.9325 85.999Z" fill="#FF9213"/>
<path fill-rule="evenodd" clip-rule="evenodd" d="M73.7065 15.999C67.8025 15.999 63.0166 20.7849 63.0166 26.6889V42.724C63.0166 48.6279 67.8025 53.4138 73.7065 53.4138C79.6105 53.4138 84.3964 48.6279 84.3964 42.724V26.6889C84.3964 20.7849 79.6105 15.999 73.7065 15.999ZM68.3613 26.6889C68.3613 23.737 70.7545 21.3437 73.7065 21.3437C76.6584 21.3437 79.0517 23.737 79.0517 26.6889V42.724C79.0517 45.6759 76.6584 48.0691 73.7065 48.0691C70.7545 48.0691 68.3613 45.6759 68.3613 42.724V26.6889Z" fill="#002D41"/>
<path d="M60.3438 40.0518V42.7241C60.3438 50.1041 66.3265 56.087 73.7067 56.087C81.087 56.087 87.0696 50.1044 87.0696 42.7241V40.0518H92.4144V42.7241C92.4144 52.1487 85.4455 59.9458 76.3793 61.2423V64.1043H84.3968V69.449H63.0175V64.1043H71.0351V61.2423C61.9688 59.9458 55 52.1487 55 42.7241V40.0518H60.3438Z" fill="#002D41"/>
</svg>
