<svg width="117" height="86" viewBox="0 0 117 86" fill="none" xmlns="http://www.w3.org/2000/svg">
<path d="M73.9335 85.999C82.4475 86.0098 90.7733 83.4943 97.8562 78.7712C104.939 74.048 110.461 67.3296 113.721 59.4669C116.982 51.6043 117.835 42.9511 116.173 34.6033C114.51 26.2555 110.407 18.5887 104.383 12.574C98.3588 6.55919 90.6847 2.46714 82.3324 0.815939C73.9801 -0.835258 65.3255 0.0286973 57.4648 3.2985C49.6041 6.5683 42.8909 12.0967 38.1755 19.1837C33.4601 26.2706 30.9546 34.5972 30.9763 43.1088C30.3721 67.7116 17.5728 74.7409 0.378906 84.9006V85.8892L73.9335 85.999Z" fill="#FF9213"/>
<path fill-rule="evenodd" clip-rule="evenodd" d="M79.8003 26.999H48V58.999H79.8003V26.999ZM74.5001 32.3325H53.2995V53.6651H74.5001V32.3325ZM82.4502 34.999V50.999L101 58.999V26.999L82.4502 34.999ZM95.7007 35.0874L87.7506 38.516V47.482L95.7007 50.9106V35.0874Z" fill="#002D41"/>
</svg>
