<svg width="291" height="73" viewBox="0 0 291 73" fill="none" xmlns="http://www.w3.org/2000/svg">
<path d="M60.396 71.9997C67.3869 72.0087 74.2232 69.9306 80.039 66.0287C85.8548 62.1268 90.3885 56.5765 93.0659 50.081C95.7432 43.5854 96.4437 36.4368 95.0788 29.5405C93.7138 22.6442 90.3447 16.3105 85.3982 11.3416C80.4518 6.37264 74.1505 2.99209 67.2924 1.628C60.4343 0.263906 53.328 0.977639 46.8735 3.6789C40.419 6.38016 34.9068 10.9473 31.035 16.802C27.1631 22.6567 25.1058 29.5355 25.1237 36.5671C24.6275 56.8921 14.118 62.6992 0 71.0923V71.909L60.396 71.9997Z" fill="#FF9213"/>
<path d="M255.517 71.9997C262.508 72.0087 269.344 69.9306 275.16 66.0287C280.976 62.1268 285.51 56.5765 288.187 50.081C290.864 43.5854 291.565 36.4368 290.2 29.5405C288.835 22.6442 285.466 16.3105 280.519 11.3416C275.573 6.37264 269.272 2.99209 262.413 1.628C255.555 0.263906 248.449 0.977639 241.995 3.6789C235.54 6.38016 230.028 10.9473 226.156 16.802C222.284 22.6567 220.227 29.5355 220.245 36.5671C219.749 56.8921 209.239 62.6992 195.121 71.0923V71.909L255.517 71.9997Z" fill="#FF9213"/>
<rect x="59" y="1" width="191.165" height="71.0467" fill="#FF9213"/>
</svg>
